<svg xmlns="http://www.w3.org/2000/svg" width="35" height="35" viewBox="0 0 35 35"><defs><style>.a{fill:#a6a6a6;}.b{fill:#fff;}</style></defs><g transform="translate(-1074 -2178)"><circle class="a" cx="17.5" cy="17.5" r="17.5" transform="translate(1074 2178)"/><path class="b" d="M1089.3,2187l-1.65,1.8h-2.85a1.805,1.805,0,0,0-1.8,1.8v10.8a1.805,1.805,0,0,0,1.8,1.8h14.4a1.805,1.805,0,0,0,1.8-1.8v-10.8a1.805,1.805,0,0,0-1.8-1.8h-2.85l-1.65-1.8Zm2.7,13.5a4.5,4.5,0,1,1,4.5-4.5A4.507,4.507,0,0,1,1092,2200.5Z"/></g></svg>